<svg width="154.129" height="56.403" viewBox="0 0 154.129 56.403" xmlns="http://www.w3.org/2000/svg"><g id="svgGroup" stroke-linecap="round" fill-rule="nonzero" font-size="9pt" stroke="#ffffff" stroke-width=".5" fill="#ffffff" style="stroke:#ffffff;stroke-width:.5;fill:#ffffff"><path d="M 0 52.35 L 2.85 46.725 Q 4.8 48.375 7.763 49.463 Q 10.725 50.55 14.1 50.55 Q 18.3 50.55 20.438 49.163 Q 22.575 47.775 22.575 45.6 Q 22.575 44.025 21.788 42.825 Q 21 41.625 18.9 40.463 A 34.876 34.876 0 0 0 13.906 38.326 A 75.429 75.429 0 0 0 12.825 37.95 A 26.058 26.058 0 0 1 5.941 34.585 A 13.544 13.544 0 0 1 4.613 33.488 Q 1.875 30.9 1.875 26.325 Q 1.875 21.825 5.813 18.713 Q 9.75 15.6 16.725 15.6 Q 20.475 15.6 23.4 16.388 Q 26.325 17.175 28.65 18.375 L 26.775 23.925 Q 24.75 22.725 22.163 21.975 Q 19.575 21.225 16.425 21.225 A 9.727 9.727 0 0 0 10.645 22.691 A 5.559 5.559 0 0 0 10.5 22.8 Q 8.475 24.375 8.475 26.25 Q 8.475 28.05 10.05 29.325 Q 11.625 30.6 16.2 32.1 A 39.171 39.171 0 0 1 23.281 35.137 A 15.008 15.008 0 0 1 26.55 37.575 Q 29.475 40.575 29.475 45.075 Q 29.475 50.325 25.238 53.363 A 17.659 17.659 0 0 1 16.031 56.326 A 30.406 30.406 0 0 1 13.875 56.4 Q 9.45 56.4 5.888 55.275 Q 2.325 54.15 0 52.35 Z M 124.65 52.35 L 127.5 46.725 Q 129.45 48.375 132.413 49.463 Q 135.375 50.55 138.75 50.55 Q 142.95 50.55 145.088 49.163 Q 147.225 47.775 147.225 45.6 Q 147.225 44.025 146.438 42.825 Q 145.65 41.625 143.55 40.463 A 34.876 34.876 0 0 0 138.556 38.326 A 75.429 75.429 0 0 0 137.475 37.95 A 26.058 26.058 0 0 1 130.591 34.585 A 13.544 13.544 0 0 1 129.263 33.488 Q 126.525 30.9 126.525 26.325 Q 126.525 21.825 130.463 18.713 Q 134.4 15.6 141.375 15.6 Q 145.125 15.6 148.05 16.388 Q 150.975 17.175 153.3 18.375 L 151.425 23.925 Q 149.4 22.725 146.813 21.975 Q 144.225 21.225 141.075 21.225 A 9.727 9.727 0 0 0 135.295 22.691 A 5.559 5.559 0 0 0 135.15 22.8 Q 133.125 24.375 133.125 26.25 Q 133.125 28.05 134.7 29.325 Q 136.275 30.6 140.85 32.1 A 39.171 39.171 0 0 1 147.931 35.137 A 15.008 15.008 0 0 1 151.2 37.575 Q 154.125 40.575 154.125 45.075 Q 154.125 50.325 149.888 53.363 A 17.659 17.659 0 0 1 140.681 56.326 A 30.406 30.406 0 0 1 138.525 56.4 Q 134.1 56.4 130.538 55.275 Q 126.975 54.15 124.65 52.35 Z M 82.95 43.275 L 82.95 0 L 89.7 0 L 89.7 42.6 A 9.637 9.637 0 0 0 91.074 48.199 A 5.18 5.18 0 0 0 91.388 48.6 Q 93.075 50.55 96.075 50.55 Q 97.5 50.55 98.888 50.213 Q 100.275 49.875 101.25 49.425 L 102.9 54.9 Q 101.55 55.5 99.563 55.95 Q 97.575 56.4 95.175 56.4 Q 91.725 56.4 88.95 55.088 Q 86.175 53.775 84.563 50.85 Q 82.95 47.925 82.95 43.275 Z M 54.9 56.4 Q 49.35 56.4 44.925 53.813 Q 40.5 51.225 37.988 46.613 Q 35.475 42 35.475 36 Q 35.475 29.7 38.025 25.125 Q 40.575 20.55 45 18.075 Q 49.425 15.6 54.9 15.6 Q 60.375 15.6 64.763 18.075 Q 69.15 20.55 71.738 25.088 Q 74.325 29.625 74.325 35.85 Q 74.325 42.075 71.775 46.688 Q 69.225 51.3 64.838 53.85 Q 60.45 56.4 54.9 56.4 Z M 54.9 50.4 Q 60.825 50.4 64.125 46.388 Q 67.425 42.375 67.425 36 Q 67.425 32.1 65.775 28.838 Q 64.125 25.575 61.313 23.588 Q 58.5 21.6 54.9 21.6 Q 48.975 21.6 45.675 25.5 Q 42.375 29.4 42.375 35.85 Q 42.375 39.75 44.025 43.088 Q 45.675 46.425 48.488 48.413 Q 51.3 50.4 54.9 50.4 Z M 116.025 55.5 L 109.275 55.5 L 109.275 16.5 L 116.025 16.5 L 116.025 55.5 Z M 112.65 9.825 Q 110.7 9.825 109.313 8.4 Q 107.925 6.975 107.925 5.1 Q 107.925 2.925 109.2 1.65 Q 110.475 0.375 112.65 0.375 Q 114.6 0.375 115.988 1.763 Q 117.375 3.15 117.375 5.1 Q 117.375 7.2 116.1 8.513 Q 114.825 9.825 112.65 9.825 Z"/></g></svg>